<svg width="13" height="13" viewBox="0 0 13 13" fill="none" xmlns="http://www.w3.org/2000/svg">
<path fill-rule="evenodd" clip-rule="evenodd" d="M3.0191 6.08392C3.04768 6.05732 3.08163 6.03621 3.119 6.02181C3.15638 6.00741 3.19645 6 3.23692 6C3.27738 6 3.31745 6.00741 3.35483 6.02181C3.39221 6.03621 3.42616 6.05732 3.45474 6.08392L6.92879 9.30995L10.4028 6.08392C10.4315 6.05736 10.4654 6.03629 10.5028 6.02192C10.5402 6.00755 10.5802 6.00015 10.6207 6.00015C10.6611 6.00015 10.7012 6.00755 10.7386 6.02192C10.7759 6.03629 10.8099 6.05736 10.8385 6.08392C10.8671 6.11048 10.8898 6.142 10.9053 6.1767C10.9207 6.2114 10.9287 6.24859 10.9287 6.28615C10.9287 6.32371 10.9207 6.3609 10.9053 6.3956C10.8898 6.4303 10.8671 6.46183 10.8385 6.48839L7.14661 9.91608C7.11803 9.94268 7.08408 9.96379 7.04671 9.97819C7.00933 9.99259 6.96926 10 6.92879 10C6.88832 10 6.84825 9.99259 6.81088 9.97819C6.7735 9.96379 6.73955 9.94268 6.71097 9.91608L3.0191 6.48839C2.99045 6.46185 2.96771 6.43033 2.9522 6.39563C2.93669 6.36093 2.92871 6.32372 2.92871 6.28615C2.92871 6.24858 2.93669 6.21138 2.9522 6.17667C2.96771 6.14197 2.99045 6.11045 3.0191 6.08392Z" fill="#003154"/>
<path fill-rule="evenodd" clip-rule="evenodd" d="M3.0191 6.08392C3.04768 6.05732 3.08163 6.03621 3.119 6.02181C3.15638 6.00741 3.19645 6 3.23692 6C3.27738 6 3.31745 6.00741 3.35483 6.02181C3.39221 6.03621 3.42616 6.05732 3.45474 6.08392L6.92879 9.30995L10.4028 6.08392C10.4315 6.05736 10.4654 6.03629 10.5028 6.02192C10.5402 6.00755 10.5802 6.00015 10.6207 6.00015C10.6611 6.00015 10.7012 6.00755 10.7386 6.02192C10.7759 6.03629 10.8099 6.05736 10.8385 6.08392C10.8671 6.11048 10.8898 6.142 10.9053 6.1767C10.9207 6.2114 10.9287 6.24859 10.9287 6.28615C10.9287 6.32371 10.9207 6.3609 10.9053 6.3956C10.8898 6.4303 10.8671 6.46183 10.8385 6.48839L7.14661 9.91608C7.11803 9.94268 7.08408 9.96379 7.04671 9.97819C7.00933 9.99259 6.96926 10 6.92879 10C6.88832 10 6.84825 9.99259 6.81088 9.97819C6.7735 9.96379 6.73955 9.94268 6.71097 9.91608L3.0191 6.48839C2.99045 6.46185 2.96771 6.43033 2.9522 6.39563C2.93669 6.36093 2.92871 6.32372 2.92871 6.28615C2.92871 6.24858 2.93669 6.21138 2.9522 6.17667C2.96771 6.14197 2.99045 6.11045 3.0191 6.08392Z" fill="#003154"/>
<path fill-rule="evenodd" clip-rule="evenodd" d="M3.0191 6.08392C3.04768 6.05732 3.08163 6.03621 3.119 6.02181C3.15638 6.00741 3.19645 6 3.23692 6C3.27738 6 3.31745 6.00741 3.35483 6.02181C3.39221 6.03621 3.42616 6.05732 3.45474 6.08392L6.92879 9.30995L10.4028 6.08392C10.4315 6.05736 10.4654 6.03629 10.5028 6.02192C10.5402 6.00755 10.5802 6.00015 10.6207 6.00015C10.6611 6.00015 10.7012 6.00755 10.7386 6.02192C10.7759 6.03629 10.8099 6.05736 10.8385 6.08392C10.8671 6.11048 10.8898 6.142 10.9053 6.1767C10.9207 6.2114 10.9287 6.24859 10.9287 6.28615C10.9287 6.32371 10.9207 6.3609 10.9053 6.3956C10.8898 6.4303 10.8671 6.46183 10.8385 6.48839L7.14661 9.91608C7.11803 9.94268 7.08408 9.96379 7.04671 9.97819C7.00933 9.99259 6.96926 10 6.92879 10C6.88832 10 6.84825 9.99259 6.81088 9.97819C6.7735 9.96379 6.73955 9.94268 6.71097 9.91608L3.0191 6.48839C2.99045 6.46185 2.96771 6.43033 2.9522 6.39563C2.93669 6.36093 2.92871 6.32372 2.92871 6.28615C2.92871 6.24858 2.93669 6.21138 2.9522 6.17667C2.96771 6.14197 2.99045 6.11045 3.0191 6.08392Z" stroke="#003154" stroke-width="0.5"/>
<path fill-rule="evenodd" clip-rule="evenodd" d="M3.0191 6.08392C3.04768 6.05732 3.08163 6.03621 3.119 6.02181C3.15638 6.00741 3.19645 6 3.23692 6C3.27738 6 3.31745 6.00741 3.35483 6.02181C3.39221 6.03621 3.42616 6.05732 3.45474 6.08392L6.92879 9.30995L10.4028 6.08392C10.4315 6.05736 10.4654 6.03629 10.5028 6.02192C10.5402 6.00755 10.5802 6.00015 10.6207 6.00015C10.6611 6.00015 10.7012 6.00755 10.7386 6.02192C10.7759 6.03629 10.8099 6.05736 10.8385 6.08392C10.8671 6.11048 10.8898 6.142 10.9053 6.1767C10.9207 6.2114 10.9287 6.24859 10.9287 6.28615C10.9287 6.32371 10.9207 6.3609 10.9053 6.3956C10.8898 6.4303 10.8671 6.46183 10.8385 6.48839L7.14661 9.91608C7.11803 9.94268 7.08408 9.96379 7.04671 9.97819C7.00933 9.99259 6.96926 10 6.92879 10C6.88832 10 6.84825 9.99259 6.81088 9.97819C6.7735 9.96379 6.73955 9.94268 6.71097 9.91608L3.0191 6.48839C2.99045 6.46185 2.96771 6.43033 2.9522 6.39563C2.93669 6.36093 2.92871 6.32372 2.92871 6.28615C2.92871 6.24858 2.93669 6.21138 2.9522 6.17667C2.96771 6.14197 2.99045 6.11045 3.0191 6.08392Z" stroke="#003154" stroke-width="0.5"/>
</svg>
